<svg version="1.1" id="Layer_1" xmlns="http://www.w3.org/2000/svg" x="0" y="0" viewBox="0 0 512 512" xml:space="preserve" class="icon icon-xxlg-md"><path fill="#F1F1F1" d="M240.9 322.6h30.2c74.7 0 138 48.6 160.2 115.8 47.9-46 77.7-110.7 77.7-182.4C509 116.3 395.7 3 256 3S3 116.3 3 256c0 71.7 29.8 136.4 77.7 182.4 22.2-67.3 85.5-115.8 160.2-115.8zM256 93.5c54.4 0 98.5 44.1 98.5 98.5s-44.1 98.5-98.5 98.5-98.5-44.1-98.5-98.5c0-54.3 44.1-98.5 98.5-98.5z"></path><path fill="#DBDBDB" d="M271.1 322.6h-30.2c-74.7 0-138 48.6-160.2 115.8C126.2 482.1 187.9 509 256 509s129.8-26.9 175.3-70.6c-22.2-67.3-85.5-115.8-160.2-115.8z"></path><circle fill="#DBDBDB" cx="256" cy="192.1" r="98.5"></circle></svg>